<svg width="25" height="18" viewBox="0 0 25 18" fill="none" xmlns="http://www.w3.org/2000/svg">
<g clip-path="url(#clip0_877_9536)">
<path d="M6.12988 0H18.867V18H6.12992L6.12988 0Z" fill="white"/>
<path d="M-0.237305 0H6.12948V18H-0.237305V0ZM18.8666 0H25.2334V18H18.8701L18.8666 0ZM8.0385 8.69768L7.53926 8.86643L9.84198 10.8879C10.0178 11.4047 9.78225 11.5559 9.63105 11.8301L12.1272 11.5137L12.0674 14.0273L12.5877 14.0133L12.4717 11.5172L14.9748 11.816C14.8201 11.4891 14.683 11.3168 14.8236 10.7965L17.1229 8.88045L16.7221 8.73281C16.3916 8.47969 16.8627 7.5129 16.933 6.90116C16.933 6.90116 15.5935 7.3617 15.5056 7.11915L15.1611 6.46174L13.9412 7.80469C13.8076 7.83634 13.7514 7.78358 13.7197 7.67108L14.2822 4.86563L13.3893 5.36835C13.3154 5.40353 13.2416 5.3754 13.1924 5.2875L12.331 3.56483L11.4451 5.35433C11.3783 5.41759 11.3115 5.4246 11.2553 5.38245L10.4045 4.90433L10.9178 7.68514C10.8756 7.79764 10.7772 7.82576 10.6647 7.76603L9.49395 6.44063C9.34278 6.68674 9.24082 7.08397 9.03693 7.1754C8.83653 7.25978 8.15801 7.00665 7.70448 6.90821C7.85917 7.46719 8.34435 8.39531 8.0385 8.70116V8.69768Z" fill="#D52B1E"/>
</g>
<defs>
<clipPath id="clip0_877_9536">
<rect x="0.5" width="24" height="18" rx="3" fill="white"/>
</clipPath>
</defs>
</svg>
