<svg width="23" height="23" viewBox="0 0 23 23" fill="none" xmlns="http://www.w3.org/2000/svg">
<path d="M19.7025 4.40263H19.2626L15.5453 0.685353C15.2484 0.388411 14.7644 0.388411 14.4565 0.685353C14.1596 0.982295 14.1596 1.4662 14.4565 1.77414L17.085 4.40263H6.39508L9.02357 1.77414C9.32051 1.4772 9.32051 0.993293 9.02357 0.685353C8.72663 0.388411 8.24272 0.388411 7.93478 0.685353L4.22851 4.40263H3.78859C2.79879 4.40263 0.742188 4.40263 0.742188 7.21808C0.742188 8.28487 0.962144 8.98873 1.42405 9.45065C1.688 9.7256 2.00694 9.86857 2.34787 9.94555C2.66681 10.0225 3.00775 10.0335 3.33768 10.0335H20.1424C20.4833 10.0335 20.8023 10.0115 21.1102 9.94555C22.034 9.7256 22.7379 9.06571 22.7379 7.21808C22.7379 4.40263 20.6813 4.40263 19.7025 4.40263Z" fill="#510309"/>
<path d="M19.4934 11.4648H3.89851C3.21664 11.4648 2.69974 12.0697 2.80972 12.7406L3.73354 18.3935C4.04148 20.2851 4.86632 22.4627 8.5286 22.4627H14.6984C18.4046 22.4627 19.0645 20.6041 19.4604 18.5255L20.5712 12.7736C20.7032 12.0917 20.1863 11.4648 19.4934 11.4648ZM10.2112 18.5585C10.2112 18.9874 9.8703 19.3283 9.45242 19.3283C9.02351 19.3283 8.68257 18.9874 8.68257 18.5585V14.9292C8.68257 14.5112 9.02351 14.1593 9.45242 14.1593C9.8703 14.1593 10.2112 14.5112 10.2112 14.9292V18.5585ZM14.9183 18.5585C14.9183 18.9874 14.5774 19.3283 14.1485 19.3283C13.7305 19.3283 13.3786 18.9874 13.3786 18.5585V14.9292C13.3786 14.5112 13.7305 14.1593 14.1485 14.1593C14.5774 14.1593 14.9183 14.5112 14.9183 14.9292V18.5585Z" fill="#510309"/>
</svg>
