<svg width="25" height="24" viewBox="0 0 25 24" fill="none" xmlns="http://www.w3.org/2000/svg">
<path d="M12.5004 16C14.7095 16 16.5004 14.2091 16.5004 12C16.5004 9.79086 14.7095 8 12.5004 8C10.2912 8 8.50037 9.79086 8.50037 12C8.50037 14.2091 10.2912 16 12.5004 16ZM21.5049 4.00293H3.50488C2.9526 4.00293 2.50488 4.45064 2.50488 5.00293V19.0029C2.50488 19.5552 2.9526 20.0029 3.50488 20.0029H21.5049C22.0572 20.0029 22.5049 19.5552 22.5049 19.0029V5.00293C22.5049 4.45064 22.0572 4.00293 21.5049 4.00293ZM4.50488 15.6463V8.35371C5.63065 8.017 6.51836 7.12892 6.85455 6.00293H18.1462C18.4833 7.13193 19.3748 8.02175 20.5049 8.3564V15.6436C19.3729 15.9788 18.4802 16.8711 18.1444 18.0029H6.8563C6.52144 16.8742 5.63261 15.9836 4.50488 15.6463Z" fill="black"/>
</svg>
