<svg width="13" height="16" viewBox="0 0 13 16" fill="none" xmlns="http://www.w3.org/2000/svg">
<path fill-rule="evenodd" clip-rule="evenodd" d="M9.25717 2.84208V2.99773C10.1479 3.07919 11.035 3.19631 11.9164 3.34882C11.9829 3.36035 12.0465 3.38487 12.1036 3.42098C12.1607 3.4571 12.2101 3.5041 12.249 3.55931C12.2879 3.61451 12.3155 3.67684 12.3304 3.74273C12.3452 3.80862 12.3469 3.87679 12.3353 3.94334C12.3238 4.00988 12.2993 4.07351 12.2632 4.13058C12.2271 4.18765 12.1801 4.23704 12.1249 4.27595C12.0697 4.31486 12.0073 4.34251 11.9414 4.35732C11.8755 4.37214 11.8074 4.37383 11.7408 4.36231L11.5975 4.33831L10.9084 13.3006C10.8686 13.8174 10.6353 14.3001 10.2551 14.6522C9.87482 15.0044 9.37566 15.2 8.8574 15.2H3.48618C2.96792 15.2 2.46876 15.0044 2.08851 14.6522C1.70826 14.3001 1.47494 13.8174 1.43521 13.3006L0.745378 4.33831L0.602063 4.36231C0.535517 4.37383 0.467351 4.37214 0.401459 4.35732C0.335567 4.34251 0.273239 4.31486 0.218033 4.27595C0.10654 4.19738 0.0308258 4.07773 0.00754734 3.94334C-0.0157311 3.80894 0.0153327 3.6708 0.0939053 3.55931C0.172478 3.44781 0.292123 3.3721 0.42652 3.34882C1.30785 3.19613 2.19497 3.079 3.08573 2.99773V2.84208C3.08573 1.76962 3.9175 0.853499 5.0167 0.818527C5.78656 0.793889 6.55702 0.793889 7.32688 0.818527C8.42608 0.853499 9.25717 1.76962 9.25717 2.84208ZM5.04962 1.84642C5.79754 1.8225 6.54604 1.8225 7.29396 1.84642C7.81031 1.86287 8.2286 2.29762 8.2286 2.84208V2.91956C6.85843 2.83635 5.48447 2.83635 4.1143 2.91956V2.84208C4.1143 2.29762 4.5319 1.86287 5.04962 1.84642ZM4.80619 5.923C4.80358 5.85546 4.78769 5.7891 4.75943 5.7277C4.73117 5.66631 4.6911 5.61107 4.64149 5.56517C4.59189 5.51926 4.53373 5.48357 4.47034 5.46013C4.40694 5.4367 4.33955 5.42598 4.27201 5.4286C4.20448 5.43121 4.13812 5.4471 4.07672 5.47535C4.01532 5.50361 3.96009 5.54369 3.91418 5.59329C3.86827 5.64289 3.83258 5.70105 3.80915 5.76445C3.78572 5.82784 3.775 5.89523 3.77761 5.96277L4.01556 12.1342C4.02083 12.2705 4.08004 12.3991 4.18015 12.4918C4.22972 12.5377 4.28784 12.5733 4.3512 12.5968C4.41455 12.6202 4.48189 12.6309 4.54939 12.6283C4.61688 12.6257 4.6832 12.6098 4.74455 12.5815C4.80591 12.5533 4.8611 12.5132 4.90698 12.4637C4.95285 12.4141 4.98852 12.356 5.01193 12.2926C5.03535 12.2293 5.04606 12.1619 5.04344 12.0944L4.80619 5.923ZM8.56391 5.96277C8.56894 5.89393 8.56006 5.82479 8.5378 5.75946C8.51555 5.69413 8.48037 5.63395 8.43436 5.5825C8.38836 5.53105 8.33247 5.48939 8.27002 5.45999C8.20758 5.4306 8.13985 5.41407 8.07089 5.4114C8.00192 5.40873 7.93312 5.41997 7.86859 5.44445C7.80406 5.46893 7.74512 5.50615 7.69527 5.55388C7.64543 5.60162 7.6057 5.6589 7.57846 5.72232C7.55122 5.78573 7.53702 5.85398 7.53671 5.923L7.29876 12.0944C7.29349 12.2308 7.34262 12.3637 7.43533 12.4639C7.52805 12.5641 7.65677 12.6233 7.79317 12.6286C7.92956 12.6339 8.06247 12.5848 8.16265 12.492C8.26282 12.3993 8.32206 12.2706 8.32734 12.1342L8.56391 5.96277Z" fill="#888888"/>
</svg>
