<svg width="14" height="14" viewBox="0 0 14 14" fill="none" xmlns="http://www.w3.org/2000/svg">
<path fill-rule="evenodd" clip-rule="evenodd" d="M9.49747 6.69091C9.5794 6.77294 9.62542 6.88414 9.62542 7.00007C9.62542 7.11601 9.5794 7.22721 9.49747 7.30924L5.12247 11.6842C5.03954 11.7615 4.92984 11.8036 4.8165 11.8016C4.70316 11.7996 4.59502 11.7537 4.51486 11.6735C4.4347 11.5934 4.38879 11.4852 4.38679 11.3719C4.38479 11.2585 4.42686 11.1488 4.50414 11.0659L8.56997 7.00007L4.50414 2.93424C4.42686 2.8513 4.38479 2.74161 4.38679 2.62827C4.38879 2.51493 4.4347 2.40678 4.51486 2.32663C4.59502 2.24647 4.70316 2.20055 4.8165 2.19855C4.92984 2.19655 5.03954 2.23863 5.12247 2.31591L9.49747 6.69091Z" fill="#2E2E2E"/>
</svg>
