<svg width="23" height="23" viewBox="0 0 23 23" fill="none" xmlns="http://www.w3.org/2000/svg">
<path fill-rule="evenodd" clip-rule="evenodd" d="M11.5 2.15625C6.33937 2.15625 2.15625 6.33937 2.15625 11.5C2.15625 16.6606 6.33937 20.8438 11.5 20.8438C16.6606 20.8438 20.8438 16.6606 20.8438 11.5C20.8438 6.33937 16.6606 2.15625 11.5 2.15625ZM9.85167 8.83583C9.78587 8.76522 9.70651 8.70858 9.61835 8.66929C9.53018 8.63001 9.43501 8.60889 9.3385 8.60718C9.24199 8.60548 9.14613 8.62323 9.05664 8.65938C8.96714 8.69553 8.88584 8.74934 8.81759 8.81759C8.74934 8.88584 8.69553 8.96714 8.65938 9.05664C8.62323 9.14613 8.60548 9.24199 8.60718 9.3385C8.60889 9.43501 8.63001 9.53018 8.66929 9.61835C8.70858 9.70651 8.76522 9.78587 8.83583 9.85167L10.4842 11.5L8.83583 13.1483C8.76522 13.2141 8.70858 13.2935 8.66929 13.3817C8.63001 13.4698 8.60889 13.565 8.60718 13.6615C8.60548 13.758 8.62323 13.8539 8.65938 13.9434C8.69553 14.0329 8.74934 14.1142 8.81759 14.1824C8.88584 14.2507 8.96714 14.3045 9.05664 14.3406C9.14613 14.3768 9.24199 14.3945 9.3385 14.3928C9.43501 14.3911 9.53018 14.37 9.61835 14.3307C9.70651 14.2914 9.78587 14.2348 9.85167 14.1642L11.5 12.5158L13.1483 14.1642C13.2141 14.2348 13.2935 14.2914 13.3817 14.3307C13.4698 14.37 13.565 14.3911 13.6615 14.3928C13.758 14.3945 13.8539 14.3768 13.9434 14.3406C14.0329 14.3045 14.1142 14.2507 14.1824 14.1824C14.2507 14.1142 14.3045 14.0329 14.3406 13.9434C14.3768 13.8539 14.3945 13.758 14.3928 13.6615C14.3911 13.565 14.37 13.4698 14.3307 13.3817C14.2914 13.2935 14.2348 13.2141 14.1642 13.1483L12.5158 11.5L14.1642 9.85167C14.2348 9.78587 14.2914 9.70651 14.3307 9.61835C14.37 9.53018 14.3911 9.43501 14.3928 9.3385C14.3945 9.24199 14.3768 9.14613 14.3406 9.05664C14.3045 8.96714 14.2507 8.88584 14.1824 8.81759C14.1142 8.74934 14.0329 8.69553 13.9434 8.65938C13.8539 8.62323 13.758 8.60548 13.6615 8.60718C13.565 8.60889 13.4698 8.63001 13.3817 8.66929C13.2935 8.70858 13.2141 8.76522 13.1483 8.83583L11.5 10.4842L9.85167 8.83583Z" fill="#5ACC7F"/>
</svg>
