<?xml version='1.0' encoding='iso-8859-1'?>
<!-- Uploaded to: SVG Repo, www.svgrepo.com, Generator: SVG Repo Mixer Tools -->
<svg fill="#000000" height="800px" width="800px" version="1.1" xmlns="http://www.w3.org/2000/svg" viewBox="0 0 296.458 296.458" xmlns:xlink="http://www.w3.org/1999/xlink" enable-background="new 0 0 296.458 296.458">
  <g>
    <path d="m148.344,0c-36.45,0-66.104,37.011-66.104,82.666 0,38.669 20.729,71.127 49.729,80.159v122.26c0,6.507 5.49,11.373 11.997,11.373h9.338c6.507,0 11.665-4.866 11.665-11.373v-122.475c28-9.322 49.25-41.576 49.25-79.944-0.001-45.655-29.425-82.666-65.875-82.666zm43.042,46.042c4.419,0 8,3.581 8,8 0,4.419-3.581,8-8,8-4.419,0-8-3.581-8-8 0-4.419 3.581-8 8-8zm-16-25c4.419,0 8,3.581 8,8 0,4.419-3.581,8-8,8-4.419,0-8-3.581-8-8 0-4.419 3.581-8 8-8zm-27-11c4.419,0 8,3.581 8,8 0,4.419-3.581,8-8,8-4.419,0-8-3.581-8-8 0-4.419 3.581-8 8-8zm0,32c4.419,0 8,3.581 8,8 0,4.419-3.581,8-8,8-4.419,0-8-3.581-8-8 0-4.419 3.581-8 8-8zm-27-21c4.419,0 8,3.581 8,8 0,4.419-3.581,8-8,8-4.419,0-8-3.581-8-8 0-4.419 3.581-8 8-8zm-16,25c4.419,0 8,3.581 8,8 0,4.419-3.581,8-8,8-4.419,0-8-3.581-8-8 0-4.419 3.581-8 8-8zm-13,37c0-4.419 3.581-8 8-8 4.419,0 8,3.581 8,8 0,4.419-3.581,8-8,8-4.419,0-8-3.581-8-8zm13,37c-4.419,0-8-3.581-8-8 0-4.419 3.581-8 8-8 4.419,0 8,3.581 8,8 0,4.419-3.581,8-8,8zm16,25c-4.419,0-8-3.581-8-8 0-4.419 3.581-8 8-8 4.419,0 8,3.581 8,8 0,4.419-3.581,8-8,8zm11-54c-4.419,0-8-3.581-8-8 0-4.419 3.581-8 8-8 4.419,0 8,3.581 8,8 0,4.419-3.581,8-8,8zm16,65c-4.419,0-8-3.581-8-8 0-4.419 3.581-8 8-8 4.419,0 8,3.581 8,8 0,4.419-3.581,8-8,8zm0-33c-4.419,0-8-3.581-8-8 0-4.419 3.581-8 8-8 4.419,0 8,3.581 8,8 0,4.419-3.581,8-8,8zm16-32c-4.419,0-8-3.581-8-8 0-4.419 3.581-8 8-8 4.419,0 8,3.581 8,8 0,4.419-3.581,8-8,8zm11,54c-4.419,0-8-3.581-8-8 0-4.419 3.581-8 8-8 4.419,0 8,3.581 8,8 0,4.419-3.581,8-8,8zm16-25c-4.419,0-8-3.581-8-8 0-4.419 3.581-8 8-8 4.419,0 8,3.581 8,8 0,4.419-3.581,8-8,8zm5-29c-4.419,0-8-3.581-8-8 0-4.419 3.581-8 8-8 4.419,0 8,3.581 8,8 0,4.419-3.581,8-8,8z"/>
  </g>
</svg>