<svg width="25" height="25" viewBox="0 0 25 25" fill="none" xmlns="http://www.w3.org/2000/svg">
<path d="M11.7103 4.30447C11.8509 4.16402 12.0416 4.08513 12.2403 4.08513C12.4391 4.08513 12.6297 4.16402 12.7703 4.30447L21.4603 12.9945C21.529 13.0682 21.6118 13.1273 21.7038 13.1682C21.7958 13.2092 21.8951 13.2313 21.9958 13.2331C22.0965 13.2348 22.1965 13.2163 22.2899 13.1786C22.3833 13.1409 22.4681 13.0847 22.5393 13.0135C22.6106 12.9423 22.6667 12.8575 22.7044 12.7641C22.7422 12.6707 22.7607 12.5706 22.7589 12.4699C22.7571 12.3692 22.7351 12.2699 22.6941 12.1779C22.6531 12.0859 22.594 12.0031 22.5203 11.9345L13.8313 3.24447C13.6224 3.03553 13.3743 2.8698 13.1014 2.75672C12.8284 2.64365 12.5358 2.58545 12.2403 2.58545C11.9448 2.58545 11.6523 2.64365 11.3793 2.75672C11.1063 2.8698 10.8582 3.03553 10.6493 3.24447L1.95932 11.9345C1.82276 12.076 1.74725 12.2655 1.74905 12.4621C1.75086 12.6588 1.82982 12.8468 1.96894 12.9858C2.10807 13.1248 2.29621 13.2036 2.49286 13.2052C2.68951 13.2068 2.87893 13.1312 3.02031 12.9945L11.7103 4.30447Z" fill="#510309"/>
<path d="M12.2402 5.89678L20.3992 14.0558C20.4292 14.0858 20.4592 14.1138 20.4902 14.1418V20.3398C20.4902 21.3748 19.6502 22.2148 18.6152 22.2148H15.2402C15.0413 22.2148 14.8506 22.1358 14.7099 21.9951C14.5693 21.8545 14.4902 21.6637 14.4902 21.4648V16.9648C14.4902 16.7659 14.4112 16.5751 14.2706 16.4344C14.1299 16.2938 13.9391 16.2148 13.7402 16.2148H10.7402C10.5413 16.2148 10.3506 16.2938 10.2099 16.4344C10.0693 16.5751 9.99023 16.7659 9.99023 16.9648V21.4648C9.99023 21.6637 9.91122 21.8545 9.77056 21.9951C9.62991 22.1358 9.43915 22.2148 9.24023 22.2148H5.86523C5.36795 22.2148 4.89104 22.0172 4.53941 21.6656C4.18778 21.314 3.99023 20.8371 3.99023 20.3398V14.1418C4.02135 14.1139 4.05169 14.0853 4.08123 14.0558L12.2402 5.89478V5.89678Z" fill="#510309"/>
</svg>
