<svg width="39" height="39" viewBox="0 0 39 39" fill="none" xmlns="http://www.w3.org/2000/svg">
<circle cx="18.7778" cy="18.7778" r="18.7778" fill="#F5F5F5"/>
<path d="M19 26.5C20.6625 26.4999 22.2779 25.9477 23.5925 24.93C24.9072 23.9124 25.8466 22.4869 26.2633 20.8775M19 26.5C17.3375 26.4999 15.7221 25.9477 14.4075 24.93C13.0928 23.9124 12.1534 22.4869 11.7367 20.8775M19 26.5C21.0708 26.5 22.75 23.1417 22.75 19C22.75 14.8583 21.0708 11.5 19 11.5M19 26.5C16.9292 26.5 15.25 23.1417 15.25 19C15.25 14.8583 16.9292 11.5 19 11.5M26.2633 20.8775C26.4175 20.2775 26.5 19.6483 26.5 19C26.5021 17.7101 26.1699 16.4417 25.5358 15.3183M26.2633 20.8775C24.041 22.1095 21.541 22.754 19 22.75C16.365 22.75 13.8892 22.0708 11.7367 20.8775M11.7367 20.8775C11.579 20.2641 11.4994 19.6333 11.5 19C11.5 17.6625 11.85 16.4058 12.4642 15.3183M19 11.5C20.3302 11.4994 21.6366 11.8528 22.7852 12.5238C23.9337 13.1948 24.8831 14.1593 25.5358 15.3183M19 11.5C17.6698 11.4994 16.3634 11.8528 15.2148 12.5238C14.0663 13.1948 13.1169 14.1593 12.4642 15.3183M25.5358 15.3183C23.7214 16.8899 21.4004 17.7535 19 17.75C16.5017 17.75 14.2167 16.8333 12.4642 15.3183" stroke="black" stroke-width="1.5" stroke-linecap="round" stroke-linejoin="round"/>
</svg>
