<svg width="16" height="16" viewBox="0 0 16 16" fill="none" xmlns="http://www.w3.org/2000/svg">
<path fill-rule="evenodd" clip-rule="evenodd" d="M7.69333 14.9007L7.74 14.9273L7.75867 14.938C7.83269 14.978 7.91552 14.999 7.99967 14.999C8.08382 14.999 8.16664 14.978 8.24067 14.938L8.25933 14.928L8.30667 14.9007C8.56741 14.7461 8.82184 14.581 9.06933 14.406C9.71005 13.9537 10.3087 13.4445 10.858 12.8847C12.154 11.558 13.5 9.56467 13.5 7C13.5 5.54131 12.9205 4.14236 11.8891 3.11091C10.8576 2.07946 9.45869 1.5 8 1.5C6.54131 1.5 5.14236 2.07946 4.11091 3.11091C3.07946 4.14236 2.5 5.54131 2.5 7C2.5 9.564 3.84667 11.558 5.142 12.8847C5.6911 13.4445 6.28952 13.9536 6.93 14.406C7.17771 14.5811 7.43236 14.7461 7.69333 14.9007ZM8 9C8.53043 9 9.03914 8.78929 9.41421 8.41421C9.78929 8.03914 10 7.53043 10 7C10 6.46957 9.78929 5.96086 9.41421 5.58579C9.03914 5.21071 8.53043 5 8 5C7.46957 5 6.96086 5.21071 6.58579 5.58579C6.21071 5.96086 6 6.46957 6 7C6 7.53043 6.21071 8.03914 6.58579 8.41421C6.96086 8.78929 7.46957 9 8 9Z" fill="#888888"/>
</svg>
