<svg width="39" height="39" viewBox="0 0 39 39" fill="none" xmlns="http://www.w3.org/2000/svg">
<circle cx="18.7778" cy="18.7778" r="18.7778" fill="#F5F5F5"/>
<path d="M23.125 17.5V14.375C23.125 13.8777 22.9275 13.4008 22.5758 13.0492C22.2242 12.6975 21.7473 12.5 21.25 12.5H16.25C15.7527 12.5 15.2758 12.6975 14.9242 13.0492C14.5725 13.4008 14.375 13.8777 14.375 14.375V25.625C14.375 26.1223 14.5725 26.5992 14.9242 26.9508C15.2758 27.3025 15.7527 27.5 16.25 27.5H21.25C21.7473 27.5 22.2242 27.3025 22.5758 26.9508C22.9275 26.5992 23.125 26.1223 23.125 25.625V22.5M25.625 22.5L28.125 20M28.125 20L25.625 17.5M28.125 20H17.5" stroke="black" stroke-width="1.5" stroke-linecap="round" stroke-linejoin="round"/>
</svg>
