<svg width="35" height="36" viewBox="0 0 35 36" fill="none" xmlns="http://www.w3.org/2000/svg">
<path fill-rule="evenodd" clip-rule="evenodd" d="M17.3995 4.12622C9.68602 4.12622 3.43359 10.3786 3.43359 18.0921C3.43359 25.8056 9.68602 32.058 17.3995 32.058C25.113 32.058 31.3654 25.8056 31.3654 18.0921C31.3654 10.3786 25.113 4.12622 17.3995 4.12622ZM14.9358 14.11C14.8374 14.0045 14.7188 13.9198 14.587 13.8611C14.4552 13.8024 14.313 13.7708 14.1687 13.7683C14.0245 13.7657 13.8812 13.7923 13.7474 13.8463C13.6137 13.9003 13.4922 13.9808 13.3901 14.0828C13.2881 14.1848 13.2077 14.3063 13.1537 14.4401C13.0996 14.5738 13.0731 14.7171 13.0757 14.8614C13.0782 15.0056 13.1098 15.1479 13.1685 15.2797C13.2272 15.4114 13.3119 15.53 13.4174 15.6284L15.8811 18.0921L13.4174 20.5558C13.3119 20.6542 13.2272 20.7728 13.1685 20.9046C13.1098 21.0364 13.0782 21.1786 13.0757 21.3229C13.0731 21.4671 13.0996 21.6104 13.1537 21.7442C13.2077 21.8779 13.2881 21.9994 13.3901 22.1015C13.4922 22.2035 13.6137 22.2839 13.7474 22.3379C13.8812 22.392 14.0245 22.4185 14.1687 22.4159C14.313 22.4134 14.4552 22.3818 14.587 22.3231C14.7188 22.2644 14.8374 22.1797 14.9358 22.0742L17.3995 19.6105L19.8632 22.0742C19.9616 22.1797 20.0802 22.2644 20.212 22.3231C20.3437 22.3818 20.486 22.4134 20.6302 22.4159C20.7745 22.4185 20.9178 22.392 21.0515 22.3379C21.1853 22.2839 21.3068 22.2035 21.4088 22.1015C21.5108 21.9994 21.5913 21.8779 21.6453 21.7442C21.6993 21.6104 21.7259 21.4671 21.7233 21.3229C21.7208 21.1786 21.6892 21.0364 21.6305 20.9046C21.5718 20.7728 21.4871 20.6542 21.3816 20.5558L18.9178 18.0921L21.3816 15.6284C21.4871 15.53 21.5718 15.4114 21.6305 15.2797C21.6892 15.1479 21.7208 15.0056 21.7233 14.8614C21.7259 14.7171 21.6993 14.5738 21.6453 14.4401C21.5913 14.3063 21.5108 14.1848 21.4088 14.0828C21.3068 13.9808 21.1853 13.9003 21.0515 13.8463C20.9178 13.7923 20.7745 13.7657 20.6302 13.7683C20.486 13.7708 20.3437 13.8024 20.212 13.8611C20.0802 13.9198 19.9616 14.0045 19.8632 14.11L17.3995 16.5738L14.9358 14.11Z" fill="#888888"/>
</svg>
