<svg width="25" height="25" viewBox="0 0 25 25" fill="none" xmlns="http://www.w3.org/2000/svg">
<path d="M12.9902 13.2146C12.9902 13.4135 12.9112 13.6043 12.7706 13.7449C12.6299 13.8856 12.4391 13.9646 12.2402 13.9646C12.0413 13.9646 11.8506 13.8856 11.7099 13.7449C11.5693 13.6043 11.4902 13.4135 11.4902 13.2146C11.4902 13.0157 11.5693 12.8249 11.7099 12.6843C11.8506 12.5436 12.0413 12.4646 12.2402 12.4646C12.4391 12.4646 12.6299 12.5436 12.7706 12.6843C12.9112 12.8249 12.9902 13.0157 12.9902 13.2146ZM7.74023 16.2146C7.93915 16.2146 8.12991 16.1356 8.27056 15.9949C8.41122 15.8543 8.49023 15.6635 8.49023 15.4646C8.49023 15.2657 8.41122 15.0749 8.27056 14.9343C8.12991 14.7936 7.93915 14.7146 7.74023 14.7146C7.54132 14.7146 7.35056 14.7936 7.2099 14.9343C7.06925 15.0749 6.99023 15.2657 6.99023 15.4646C6.99023 15.6635 7.06925 15.8543 7.2099 15.9949C7.35056 16.1356 7.54132 16.2146 7.74023 16.2146ZM8.49023 17.7146C8.49023 17.9135 8.41122 18.1043 8.27056 18.2449C8.12991 18.3856 7.93915 18.4646 7.74023 18.4646C7.54132 18.4646 7.35056 18.3856 7.2099 18.2449C7.06925 18.1043 6.99023 17.9135 6.99023 17.7146C6.99023 17.5157 7.06925 17.3249 7.2099 17.1843C7.35056 17.0436 7.54132 16.9646 7.74023 16.9646C7.93915 16.9646 8.12991 17.0436 8.27056 17.1843C8.41122 17.3249 8.49023 17.5157 8.49023 17.7146ZM9.99023 16.2146C10.1891 16.2146 10.3799 16.1356 10.5206 15.9949C10.6612 15.8543 10.7402 15.6635 10.7402 15.4646C10.7402 15.2657 10.6612 15.0749 10.5206 14.9343C10.3799 14.7936 10.1891 14.7146 9.99023 14.7146C9.79132 14.7146 9.60056 14.7936 9.4599 14.9343C9.31925 15.0749 9.24023 15.2657 9.24023 15.4646C9.24023 15.6635 9.31925 15.8543 9.4599 15.9949C9.60056 16.1356 9.79132 16.2146 9.99023 16.2146ZM10.7402 17.7146C10.7402 17.9135 10.6612 18.1043 10.5206 18.2449C10.3799 18.3856 10.1891 18.4646 9.99023 18.4646C9.79132 18.4646 9.60056 18.3856 9.4599 18.2449C9.31925 18.1043 9.24023 17.9135 9.24023 17.7146C9.24023 17.5157 9.31925 17.3249 9.4599 17.1843C9.60056 17.0436 9.79132 16.9646 9.99023 16.9646C10.1891 16.9646 10.3799 17.0436 10.5206 17.1843C10.6612 17.3249 10.7402 17.5157 10.7402 17.7146ZM12.2402 16.2146C12.4391 16.2146 12.6299 16.1356 12.7706 15.9949C12.9112 15.8543 12.9902 15.6635 12.9902 15.4646C12.9902 15.2657 12.9112 15.0749 12.7706 14.9343C12.6299 14.7936 12.4391 14.7146 12.2402 14.7146C12.0413 14.7146 11.8506 14.7936 11.7099 14.9343C11.5693 15.0749 11.4902 15.2657 11.4902 15.4646C11.4902 15.6635 11.5693 15.8543 11.7099 15.9949C11.8506 16.1356 12.0413 16.2146 12.2402 16.2146ZM12.9902 17.7146C12.9902 17.9135 12.9112 18.1043 12.7706 18.2449C12.6299 18.3856 12.4391 18.4646 12.2402 18.4646C12.0413 18.4646 11.8506 18.3856 11.7099 18.2449C11.5693 18.1043 11.4902 17.9135 11.4902 17.7146C11.4902 17.5157 11.5693 17.3249 11.7099 17.1843C11.8506 17.0436 12.0413 16.9646 12.2402 16.9646C12.4391 16.9646 12.6299 17.0436 12.7706 17.1843C12.9112 17.3249 12.9902 17.5157 12.9902 17.7146ZM14.4902 16.2146C14.6891 16.2146 14.8799 16.1356 15.0206 15.9949C15.1612 15.8543 15.2402 15.6635 15.2402 15.4646C15.2402 15.2657 15.1612 15.0749 15.0206 14.9343C14.8799 14.7936 14.6891 14.7146 14.4902 14.7146C14.2913 14.7146 14.1006 14.7936 13.9599 14.9343C13.8193 15.0749 13.7402 15.2657 13.7402 15.4646C13.7402 15.6635 13.8193 15.8543 13.9599 15.9949C14.1006 16.1356 14.2913 16.2146 14.4902 16.2146ZM15.2402 17.7146C15.2402 17.9135 15.1612 18.1043 15.0206 18.2449C14.8799 18.3856 14.6891 18.4646 14.4902 18.4646C14.2913 18.4646 14.1006 18.3856 13.9599 18.2449C13.8193 18.1043 13.7402 17.9135 13.7402 17.7146C13.7402 17.5157 13.8193 17.3249 13.9599 17.1843C14.1006 17.0436 14.2913 16.9646 14.4902 16.9646C14.6891 16.9646 14.8799 17.0436 15.0206 17.1843C15.1612 17.3249 15.2402 17.5157 15.2402 17.7146ZM16.7402 16.2146C16.9391 16.2146 17.1299 16.1356 17.2706 15.9949C17.4112 15.8543 17.4902 15.6635 17.4902 15.4646C17.4902 15.2657 17.4112 15.0749 17.2706 14.9343C17.1299 14.7936 16.9391 14.7146 16.7402 14.7146C16.5413 14.7146 16.3506 14.7936 16.2099 14.9343C16.0693 15.0749 15.9902 15.2657 15.9902 15.4646C15.9902 15.6635 16.0693 15.8543 16.2099 15.9949C16.3506 16.1356 16.5413 16.2146 16.7402 16.2146ZM15.2402 13.2146C15.2402 13.4135 15.1612 13.6043 15.0206 13.7449C14.8799 13.8856 14.6891 13.9646 14.4902 13.9646C14.2913 13.9646 14.1006 13.8856 13.9599 13.7449C13.8193 13.6043 13.7402 13.4135 13.7402 13.2146C13.7402 13.0157 13.8193 12.8249 13.9599 12.6843C14.1006 12.5436 14.2913 12.4646 14.4902 12.4646C14.6891 12.4646 14.8799 12.5436 15.0206 12.6843C15.1612 12.8249 15.2402 13.0157 15.2402 13.2146ZM16.7402 13.9646C16.9391 13.9646 17.1299 13.8856 17.2706 13.7449C17.4112 13.6043 17.4902 13.4135 17.4902 13.2146C17.4902 13.0157 17.4112 12.8249 17.2706 12.6843C17.1299 12.5436 16.9391 12.4646 16.7402 12.4646C16.5413 12.4646 16.3506 12.5436 16.2099 12.6843C16.0693 12.8249 15.9902 13.0157 15.9902 13.2146C15.9902 13.4135 16.0693 13.6043 16.2099 13.7449C16.3506 13.8856 16.5413 13.9646 16.7402 13.9646Z" fill="#510309"/>
<path fill-rule="evenodd" clip-rule="evenodd" d="M6.99023 2.7146C7.18915 2.7146 7.37991 2.79362 7.52056 2.93427C7.66122 3.07492 7.74023 3.26569 7.74023 3.4646V4.9646H16.7402V3.4646C16.7402 3.26569 16.8193 3.07492 16.9599 2.93427C17.1006 2.79362 17.2913 2.7146 17.4902 2.7146C17.6891 2.7146 17.8799 2.79362 18.0206 2.93427C18.1612 3.07492 18.2402 3.26569 18.2402 3.4646V4.9646H18.9902C19.7859 4.9646 20.5489 5.28067 21.1116 5.84328C21.6742 6.40589 21.9902 7.16895 21.9902 7.9646V19.2146C21.9902 20.0102 21.6742 20.7733 21.1116 21.3359C20.5489 21.8985 19.7859 22.2146 18.9902 22.2146H5.49023C4.69458 22.2146 3.93152 21.8985 3.36891 21.3359C2.8063 20.7733 2.49023 20.0102 2.49023 19.2146V7.9646C2.49023 7.16895 2.8063 6.40589 3.36891 5.84328C3.93152 5.28067 4.69458 4.9646 5.49023 4.9646H6.24023V3.4646C6.24023 3.26569 6.31925 3.07492 6.4599 2.93427C6.60056 2.79362 6.79132 2.7146 6.99023 2.7146ZM20.4902 11.7146C20.4902 11.3168 20.3322 10.9352 20.0509 10.6539C19.7696 10.3726 19.3881 10.2146 18.9902 10.2146H5.49023C5.09241 10.2146 4.71088 10.3726 4.42957 10.6539C4.14827 10.9352 3.99023 11.3168 3.99023 11.7146V19.2146C3.99023 19.6124 4.14827 19.994 4.42957 20.2753C4.71088 20.5566 5.09241 20.7146 5.49023 20.7146H18.9902C19.3881 20.7146 19.7696 20.5566 20.0509 20.2753C20.3322 19.994 20.4902 19.6124 20.4902 19.2146V11.7146Z" fill="#510309"/>
</svg>
