<svg width="32" height="32" viewBox="0 0 32 32" fill="none" xmlns="http://www.w3.org/2000/svg">
<path fill-rule="evenodd" clip-rule="evenodd" d="M7.00061 12C7.00061 9.61305 7.94883 7.32387 9.63665 5.63604C11.3245 3.94821 13.6137 3 16.0006 3C18.3876 3 20.6767 3.94821 22.3646 5.63604C24.0524 7.32387 25.0006 9.61305 25.0006 12V13C25.0006 15.8307 26.0673 18.4093 27.8246 20.36C27.9341 20.4813 28.0122 20.6276 28.052 20.7861C28.0918 20.9446 28.0922 21.1104 28.0532 21.269C28.0141 21.4277 27.9367 21.5744 27.8279 21.6962C27.719 21.8181 27.5819 21.9114 27.4286 21.968C25.3699 22.728 23.2153 23.288 20.9873 23.6253C21.0374 24.3109 20.9457 24.9994 20.7179 25.6478C20.49 26.2963 20.1308 26.8909 19.6629 27.3943C19.1949 27.8978 18.6282 28.2993 17.9981 28.5739C17.3679 28.8485 16.688 28.9902 16.0006 28.9902C15.3133 28.9902 14.6333 28.8485 14.0032 28.5739C13.373 28.2993 12.8063 27.8978 12.3383 27.3943C11.8704 26.8909 11.5112 26.2963 11.2834 25.6478C11.0555 24.9994 10.9638 24.3109 11.0139 23.6253C8.81615 23.2923 6.65793 22.7365 4.57261 21.9667C4.41946 21.9101 4.28248 21.8169 4.17363 21.6953C4.06478 21.5736 3.98738 21.4271 3.94819 21.2686C3.909 21.1101 3.9092 20.9445 3.94879 20.7861C3.98837 20.6277 4.06613 20.4814 4.17528 20.36C5.99769 18.3422 7.00472 15.7189 7.00061 13V12ZM13.0033 23.8667C12.9862 24.2709 13.0511 24.6744 13.1941 25.053C13.337 25.4315 13.555 25.7772 13.835 26.0693C14.1151 26.3613 14.4513 26.5937 14.8234 26.7525C15.1956 26.9113 15.596 26.9931 16.0006 26.9931C16.4052 26.9931 16.8057 26.9113 17.1778 26.7525C17.55 26.5937 17.8862 26.3613 18.1662 26.0693C18.4462 25.7772 18.6642 25.4315 18.8072 25.053C18.9501 24.6744 19.015 24.2709 18.9979 23.8667C17.0038 24.0463 14.9975 24.0463 13.0033 23.8667Z" fill="#510309"/>
<circle cx="23.5" cy="8.5" r="3.5" fill="#1BB73E"/>
</svg>
