<svg width="42" height="42" viewBox="0 0 42 42" fill="none" xmlns="http://www.w3.org/2000/svg">
<circle cx="20.2222" cy="20.2222" r="20.2222" fill="#F5F5F5"/>
<path d="M23.0177 18.9345V15.4351C23.0177 14.6617 22.7105 13.92 22.1636 13.3732C21.6167 12.8263 20.875 12.519 20.1016 12.519C19.3282 12.519 18.5865 12.8263 18.0396 13.3732C17.4927 13.92 17.1855 14.6617 17.1855 15.4351V18.9345M26.0162 17.3847L26.9984 26.7162C27.0528 27.2333 26.6485 27.6828 26.1282 27.6828H14.075C13.9523 27.6829 13.8309 27.6572 13.7188 27.6074C13.6067 27.5576 13.5063 27.4847 13.4241 27.3936C13.342 27.3024 13.28 27.195 13.242 27.0783C13.2041 26.9616 13.1912 26.8382 13.204 26.7162L14.187 17.3847C14.2096 17.1697 14.3111 16.9707 14.4718 16.8261C14.6325 16.6815 14.841 16.6016 15.0571 16.6016H25.1461C25.594 16.6016 25.9696 16.9399 26.0162 17.3847ZM17.4771 18.9345C17.4771 19.0118 17.4464 19.086 17.3917 19.1407C17.337 19.1954 17.2628 19.2261 17.1855 19.2261C17.1082 19.2261 17.034 19.1954 16.9793 19.1407C16.9246 19.086 16.8939 19.0118 16.8939 18.9345C16.8939 18.8571 16.9246 18.783 16.9793 18.7283C17.034 18.6736 17.1082 18.6429 17.1855 18.6429C17.2628 18.6429 17.337 18.6736 17.3917 18.7283C17.4464 18.783 17.4771 18.8571 17.4771 18.9345ZM23.3093 18.9345C23.3093 19.0118 23.2786 19.086 23.2239 19.1407C23.1692 19.1954 23.0951 19.2261 23.0177 19.2261C22.9404 19.2261 22.8662 19.1954 22.8115 19.1407C22.7568 19.086 22.7261 19.0118 22.7261 18.9345C22.7261 18.8571 22.7568 18.783 22.8115 18.7283C22.8662 18.6736 22.9404 18.6429 23.0177 18.6429C23.0951 18.6429 23.1692 18.6736 23.2239 18.7283C23.2786 18.783 23.3093 18.8571 23.3093 18.9345Z" stroke="black" stroke-width="1.5" stroke-linecap="round" stroke-linejoin="round"/>
</svg>
