<svg width="39" height="39" viewBox="0 0 39 39" fill="none" xmlns="http://www.w3.org/2000/svg">
<circle cx="18.7778" cy="18.7778" r="18.7778" fill="#F5F5F5"/>
<path d="M22.0625 17.3125V14.3438C22.0625 13.3989 21.6872 12.4928 21.0191 11.8247C20.351 11.1566 19.4448 10.7813 18.5 10.7812C17.5552 10.7813 16.649 11.1566 15.9809 11.8247C15.3128 12.4928 14.9375 13.3989 14.9375 14.3438V17.3125M14.3438 26.2188H22.6563C23.1287 26.2188 23.5817 26.0311 23.9158 25.697C24.2498 25.363 24.4375 24.9099 24.4375 24.4375V19.0938C24.4375 18.6213 24.2498 18.1683 23.9158 17.8342C23.5817 17.5002 23.1287 17.3125 22.6563 17.3125H14.3438C13.8713 17.3125 13.4183 17.5002 13.0842 17.8342C12.7502 18.1683 12.5625 18.6213 12.5625 19.0938V24.4375C12.5625 24.9099 12.7502 25.363 13.0842 25.697C13.4183 26.0311 13.8713 26.2188 14.3438 26.2188Z" stroke="black" stroke-width="1.5" stroke-linecap="round" stroke-linejoin="round"/>
</svg>
