<svg width="39" height="39" viewBox="0 0 39 39" fill="none" xmlns="http://www.w3.org/2000/svg">
<circle cx="18.7778" cy="18.7778" r="18.7778" fill="#F5F5F5"/>
<path d="M23.9854 24.6042C23.4031 23.8332 22.6498 23.208 21.7847 22.7778C20.9197 22.3476 19.9665 22.1241 19.0004 22.125C18.0343 22.1241 17.0812 22.3476 16.2161 22.7778C15.351 23.208 14.5977 23.8332 14.0154 24.6042M23.9854 24.6042C25.1217 23.5935 25.923 22.2613 26.2847 20.7842C26.6465 19.3072 26.5506 17.7551 26.01 16.3337C25.4693 14.9124 24.5094 13.689 23.2574 12.8257C22.0055 11.9625 20.5207 11.5002 19 11.5002C17.4793 11.5002 15.9945 11.9625 14.7426 12.8257C13.4906 13.689 12.5307 14.9124 11.99 16.3337C11.4494 17.7551 11.3535 19.3072 11.7153 20.7842C12.077 22.2613 12.8792 23.5935 14.0154 24.6042M23.9854 24.6042C22.6138 25.8276 20.8384 26.5026 19.0004 26.5C17.1621 26.5028 15.3873 25.8278 14.0154 24.6042M21.5004 17.125C21.5004 17.788 21.237 18.4239 20.7682 18.8928C20.2993 19.3616 19.6635 19.625 19.0004 19.625C18.3374 19.625 17.7015 19.3616 17.2327 18.8928C16.7638 18.4239 16.5004 17.788 16.5004 17.125C16.5004 16.462 16.7638 15.8261 17.2327 15.3572C17.7015 14.8884 18.3374 14.625 19.0004 14.625C19.6635 14.625 20.2993 14.8884 20.7682 15.3572C21.237 15.8261 21.5004 16.462 21.5004 17.125Z" stroke="black" stroke-width="1.5" stroke-linecap="round" stroke-linejoin="round"/>
</svg>
