<svg width="19" height="21" viewBox="0 0 19 21" fill="none" xmlns="http://www.w3.org/2000/svg">
<path fill-rule="evenodd" clip-rule="evenodd" d="M8.81817 0.7146C7.90117 0.7146 7.11917 1.3776 6.96817 2.2816L6.79017 3.3536C6.77017 3.4736 6.67517 3.6136 6.49317 3.7016C6.15052 3.86631 5.8209 4.05686 5.50717 4.2716C5.34117 4.3866 5.17317 4.3976 5.05717 4.3546L4.04017 3.9726C3.62441 3.81684 3.16687 3.81366 2.74898 3.96364C2.3311 4.11361 1.98 4.40701 1.75817 4.7916L0.836169 6.3886C0.614258 6.77296 0.535883 7.22357 0.614986 7.66029C0.694089 8.097 0.925541 8.4915 1.26817 8.7736L2.10817 9.4656C2.20317 9.5436 2.27817 9.6946 2.26217 9.8956C2.23367 10.2747 2.23367 10.6555 2.26217 11.0346C2.27717 11.2346 2.20317 11.3866 2.10917 11.4646L1.26817 12.1566C0.925541 12.4387 0.694089 12.8332 0.614986 13.2699C0.535883 13.7066 0.614258 14.1572 0.836169 14.5416L1.75817 16.1386C1.98015 16.523 2.33133 16.8162 2.7492 16.966C3.16706 17.1158 3.62452 17.1124 4.04017 16.9566L5.05917 16.5746C5.17417 16.5316 5.34217 16.5436 5.50917 16.6566C5.82117 16.8706 6.15017 17.0616 6.49417 17.2266C6.67617 17.3146 6.77117 17.4546 6.79117 17.5766L6.96917 18.6476C7.12017 19.5516 7.90217 20.2146 8.81917 20.2146H10.6632C11.5792 20.2146 12.3622 19.5516 12.5132 18.6476L12.6912 17.5756C12.7112 17.4556 12.8052 17.3156 12.9882 17.2266C13.3322 17.0616 13.6612 16.8706 13.9732 16.6566C14.1402 16.5426 14.3082 16.5316 14.4232 16.5746L15.4432 16.9566C15.8587 17.1118 16.3158 17.1147 16.7332 16.9648C17.1506 16.8148 17.5014 16.5217 17.7232 16.1376L18.6462 14.5406C18.8681 14.1562 18.9465 13.7056 18.8674 13.2689C18.7882 12.8322 18.5568 12.4377 18.2142 12.1556L17.3742 11.4636C17.2792 11.3856 17.2042 11.2346 17.2202 11.0336C17.2486 10.6545 17.2486 10.2737 17.2202 9.8946C17.2042 9.6946 17.2792 9.5426 17.3732 9.4646L18.2132 8.7726C18.9212 8.1906 19.1042 7.1826 18.6462 6.3876L17.7242 4.7906C17.5022 4.40619 17.151 4.113 16.7331 3.96321C16.3153 3.81343 15.8578 3.81675 15.4422 3.9726L14.4222 4.3546C14.3082 4.3976 14.1402 4.3856 13.9732 4.2716C13.6598 4.05689 13.3305 3.86634 12.9882 3.7016C12.8052 3.6146 12.7112 3.4746 12.6912 3.3536L12.5122 2.2816C12.4392 1.84366 12.2133 1.44582 11.8745 1.15887C11.5357 0.871918 11.1061 0.714488 10.6622 0.7146H8.81917H8.81817ZM9.74017 14.2146C10.7347 14.2146 11.6886 13.8195 12.3918 13.1162C13.0951 12.413 13.4902 11.4592 13.4902 10.4646C13.4902 9.47004 13.0951 8.51621 12.3918 7.81295C11.6886 7.10969 10.7347 6.7146 9.74017 6.7146C8.74561 6.7146 7.79178 7.10969 7.08852 7.81295C6.38526 8.51621 5.99017 9.47004 5.99017 10.4646C5.99017 11.4592 6.38526 12.413 7.08852 13.1162C7.79178 13.8195 8.74561 14.2146 9.74017 14.2146Z" fill="#510309"/>
</svg>
