<svg width="18" height="18" viewBox="0 0 18 18" fill="none" xmlns="http://www.w3.org/2000/svg">
<path d="M8.58143 17.1629C3.85118 17.1629 0 13.3117 0 8.58143C0 3.85118 3.85118 0 8.58143 0C13.3117 0 17.1629 3.85118 17.1629 8.58143C17.1629 13.3117 13.3117 17.1629 8.58143 17.1629ZM8.58143 1.25582C4.53769 1.25582 1.25582 4.54607 1.25582 8.58143C1.25582 12.6168 4.53769 15.907 8.58143 15.907C12.6252 15.907 15.907 12.6168 15.907 8.58143C15.907 4.54607 12.6252 1.25582 8.58143 1.25582Z" fill="#292D32"/>
<path d="M17.3725 17.9999C17.2134 17.9999 17.0544 17.9413 16.9288 17.8157L15.2544 16.1413C15.0116 15.8985 15.0116 15.4967 15.2544 15.2539C15.4972 15.0111 15.899 15.0111 16.1418 15.2539L17.8162 16.9283C18.059 17.1711 18.059 17.573 17.8162 17.8157C17.6906 17.9413 17.5316 17.9999 17.3725 17.9999Z" fill="#292D32"/>
</svg>
