<svg width="23" height="23" viewBox="0 0 23 23" fill="none" xmlns="http://www.w3.org/2000/svg">
<path d="M22.2189 7.77055L21.9123 4.88695C21.4683 1.74309 20.0199 0.462646 16.9224 0.462646H14.4273H12.8627H9.64877H8.08404H5.54674C2.43853 0.462646 1.00073 1.74309 0.546125 4.91818L0.260678 7.78096C0.154957 8.89484 0.461548 9.9775 1.12759 10.8207C1.93107 11.8513 3.16801 12.4343 4.54239 12.4343C5.87447 12.4343 7.1537 11.7784 7.95718 10.727C8.67608 11.7784 9.9025 12.4343 11.2663 12.4343C12.63 12.4343 13.8248 11.8097 14.5541 10.7687C15.3683 11.7993 16.6263 12.4343 17.9372 12.4343C19.3433 12.4343 20.612 11.8201 21.4049 10.7374C22.0392 9.90462 22.3247 8.8532 22.2189 7.77055Z" fill="#510309"/>
<path d="M10.5773 16.5079C9.23461 16.6432 8.21973 17.7675 8.21973 19.1V21.9524C8.21973 22.2334 8.45231 22.4625 8.73776 22.4625H13.7806C14.0661 22.4625 14.2987 22.2334 14.2987 21.9524V19.4644C14.3092 17.2886 13.0089 16.258 10.5773 16.5079Z" fill="#510309"/>
<path d="M21.1706 14.1468V17.2491C21.1706 20.1222 18.8024 22.4541 15.8845 22.4541C15.5991 22.4541 15.3665 22.2251 15.3665 21.944V19.456C15.3665 18.1235 14.9542 17.0825 14.1507 16.3746C13.4424 15.7396 12.4803 15.4273 11.2857 15.4273C11.0214 15.4273 10.7571 15.4377 10.4716 15.4689C8.58973 15.6563 7.16249 17.2178 7.16249 19.0916V21.944C7.16249 22.2251 6.9299 22.4541 6.64446 22.4541C3.72655 22.4541 1.3584 20.1222 1.3584 17.2491V14.1677C1.3584 13.439 2.08787 12.9497 2.77506 13.1891C3.06051 13.2828 3.34596 13.3557 3.64198 13.3973C3.76884 13.4181 3.90628 13.439 4.03314 13.439C4.2023 13.4598 4.37145 13.4702 4.54061 13.4702C5.76697 13.4702 6.97219 13.0225 7.92368 12.2522C8.83289 13.0225 10.017 13.4702 11.2645 13.4702C12.5226 13.4702 13.6855 13.0434 14.5947 12.273C15.5462 13.033 16.7303 13.4702 17.9355 13.4702C18.1258 13.4702 18.3161 13.4598 18.4958 13.439C18.6227 13.4285 18.739 13.4181 18.8553 13.3973C19.183 13.3557 19.4791 13.262 19.7751 13.1683C20.4623 12.9393 21.1706 13.439 21.1706 14.1468Z" fill="#510309"/>
</svg>
