<svg width="66" height="14" viewBox="0 0 66 14" fill="none" xmlns="http://www.w3.org/2000/svg">
<path fill-rule="evenodd" clip-rule="evenodd" d="M6.15978 1.83278C6.41557 1.21785 7.288 1.21785 7.5438 1.83278L8.73254 4.6916L11.818 4.93883C12.4826 4.99193 12.7521 5.82097 12.2457 6.2549L9.89503 8.2687L10.6127 11.2794C10.7675 11.928 10.0623 12.4402 9.49364 12.093L6.85179 10.4795L4.20993 12.093C3.64125 12.4402 2.93611 11.9274 3.09084 11.2794L3.80854 8.2687L1.45788 6.2549C0.951432 5.82097 1.22093 4.99193 1.88553 4.93883L4.97103 4.6916L6.15978 1.83278Z" fill="#FFB13D"/>
<path fill-rule="evenodd" clip-rule="evenodd" d="M23.2887 1.83278C23.5445 1.21785 24.4169 1.21785 24.6727 1.83278L25.8615 4.6916L28.9469 4.93883C29.6115 4.99193 29.881 5.82097 29.3746 6.2549L27.0239 8.2687L27.7416 11.2794C27.8964 11.928 27.1912 12.4402 26.6225 12.093L23.9807 10.4795L21.3388 12.093C20.7702 12.4402 20.065 11.9274 20.2197 11.2794L20.9374 8.2687L18.5868 6.2549C18.0803 5.82097 18.3498 4.99193 19.0144 4.93883L22.0999 4.6916L23.2887 1.83278Z" fill="#FFB13D"/>
<path fill-rule="evenodd" clip-rule="evenodd" d="M40.4176 1.83278C40.6734 1.21785 41.5458 1.21785 41.8016 1.83278L42.9904 4.6916L46.0759 4.93883C46.7405 4.99193 47.01 5.82097 46.5035 6.2549L44.1528 8.2687L44.8705 11.2794C45.0253 11.928 44.3201 12.4402 43.7515 12.093L41.1096 10.4795L38.4677 12.093C37.8991 12.4402 37.1939 11.9274 37.3487 11.2794L38.0664 8.2687L35.7157 6.2549C35.2092 5.82097 35.4787 4.99193 36.1433 4.93883L39.2288 4.6916L40.4176 1.83278Z" fill="#FFB13D"/>
<path fill-rule="evenodd" clip-rule="evenodd" d="M57.5467 1.83278C57.8025 1.21785 58.675 1.21785 58.9308 1.83278L60.1195 4.6916L63.205 4.93883C63.8696 4.99193 64.1391 5.82097 63.6327 6.2549L61.282 8.2687L61.9997 11.2794C62.1544 11.928 61.4493 12.4402 60.8806 12.093L58.2387 10.4795L55.5969 12.093C55.0282 12.4402 54.3231 11.9274 54.4778 11.2794L55.1955 8.2687L52.8448 6.2549C52.3384 5.82097 52.6079 4.99193 53.2725 4.93883L56.358 4.6916L57.5467 1.83278Z" fill="#FFB13D"/>
</svg>
