<svg width="42" height="42" viewBox="0 0 42 42" fill="none" xmlns="http://www.w3.org/2000/svg">
<circle cx="20.2222" cy="20.2222" r="20.2222" fill="#F5F5F5"/>
<path d="M19.7514 12.5082C19.7898 12.4146 19.8552 12.3345 19.9392 12.2781C20.0232 12.2217 20.1221 12.1917 20.2233 12.1917C20.3244 12.1917 20.4233 12.2217 20.5074 12.2781C20.5914 12.3345 20.6567 12.4146 20.6951 12.5082L22.6234 17.1459C22.6595 17.2327 22.7188 17.3079 22.7948 17.3631C22.8709 17.4183 22.9607 17.4515 23.0544 17.459L28.0615 17.8601C28.5143 17.8964 28.6975 18.4617 28.3527 18.7566L24.538 22.0251C24.4667 22.086 24.4136 22.1654 24.3845 22.2546C24.3554 22.3438 24.3513 22.4392 24.3728 22.5305L25.5389 27.4169C25.5623 27.5149 25.5562 27.6177 25.5212 27.7122C25.4863 27.8068 25.4241 27.8889 25.3425 27.9481C25.261 28.0073 25.1637 28.041 25.063 28.045C24.9623 28.049 24.8626 28.023 24.7766 27.9704L20.4891 25.3525C20.4091 25.3037 20.3171 25.2779 20.2233 25.2779C20.1295 25.2779 20.0375 25.3037 19.9574 25.3525L15.6699 27.9713C15.5839 28.0239 15.4843 28.0499 15.3836 28.0459C15.2829 28.0419 15.1856 28.0082 15.104 27.949C15.0225 27.8898 14.9603 27.8077 14.9253 27.7131C14.8904 27.6186 14.8842 27.5158 14.9077 27.4178L16.0737 22.5305C16.0953 22.4392 16.0913 22.3437 16.0622 22.2545C16.0331 22.1654 15.9799 22.086 15.9086 22.0251L12.0938 18.7566C12.0174 18.6909 11.9622 18.6041 11.935 18.5071C11.9078 18.4101 11.9099 18.3072 11.941 18.2114C11.9721 18.1155 12.0309 18.0311 12.1099 17.9686C12.1889 17.9061 12.2847 17.8683 12.3851 17.8601L17.3922 17.459C17.4859 17.4515 17.5757 17.4183 17.6517 17.3631C17.7278 17.3079 17.7871 17.2327 17.8232 17.1459L19.7514 12.5082Z" stroke="black" stroke-width="1.44444" stroke-linecap="round" stroke-linejoin="round"/>
</svg>
