<svg width="16" height="16" viewBox="0 0 16 16" fill="none" xmlns="http://www.w3.org/2000/svg">
<path fill-rule="evenodd" clip-rule="evenodd" d="M8 1.5C4.41 1.5 1.5 4.41 1.5 8C1.5 11.59 4.41 14.5 8 14.5C11.59 14.5 14.5 11.59 14.5 8C14.5 4.41 11.59 1.5 8 1.5ZM8.5 4C8.5 3.86739 8.44732 3.74021 8.35355 3.64645C8.25979 3.55268 8.13261 3.5 8 3.5C7.86739 3.5 7.74022 3.55268 7.64645 3.64645C7.55268 3.74021 7.5 3.86739 7.5 4V8C7.5 8.276 7.724 8.5 8 8.5H11C11.1326 8.5 11.2598 8.44732 11.3536 8.35355C11.4473 8.25979 11.5 8.13261 11.5 8C11.5 7.86739 11.4473 7.74022 11.3536 7.64645C11.2598 7.55268 11.1326 7.5 11 7.5H8.5V4Z" fill="#888888"/>
</svg>
