<svg width="24" height="18" viewBox="0 0 24 18" fill="none" xmlns="http://www.w3.org/2000/svg">
<g clip-path="url(#clip0_877_9511)">
<path fill-rule="evenodd" clip-rule="evenodd" d="M0 0H34.2V1.38517H0V0ZM0 2.77031H34.2V4.15549H0V2.77031ZM0 5.5371H34.2V6.92576H0V5.5371ZM0 8.30741H34.2V9.69259H0V8.30741ZM0 11.0777H34.2V12.4629H0V11.0777ZM0 13.8445H34.2V15.2297H0V13.8445ZM0 16.6148H34.2V18H0V16.6148Z" fill="#BD3D44"/>
<path fill-rule="evenodd" clip-rule="evenodd" d="M0 1.38513H34.2V2.77027H0V1.38513ZM0 4.15541H34.2V5.53706H0V4.15541ZM0 6.92223H34.2V8.30737H0V6.92223ZM0 9.69254H34.2V11.0777H0V9.69254ZM0 12.4629H34.2V13.848H0V12.4629ZM0 15.2296H34.2V16.6148H0V15.2296Z" fill="white"/>
<path fill-rule="evenodd" clip-rule="evenodd" d="M0 0H13.6793V9.69258H0V0Z" fill="#192F5D"/>
<path fill-rule="evenodd" clip-rule="evenodd" d="M1.13865 0.414917L1.26522 0.798055H1.66602L1.34254 1.03363L1.46562 1.42033L1.13865 1.18127L0.815216 1.4168L0.938253 1.03363L0.611328 0.798055H1.01914L1.13865 0.414917ZM3.4203 0.414917L3.54334 0.798055H3.94763L3.62067 1.03363L3.74374 1.42033L3.4203 1.18127L3.09334 1.4168L3.21638 1.03363L2.89294 0.798055H3.29374L3.4203 0.414917ZM5.69843 0.414917L5.82499 0.798092H6.22227L5.89883 1.03367L6.02183 1.42037L5.6949 1.1813L5.37147 1.41684L5.4945 1.03367L5.16754 0.798092H5.57187L5.69843 0.414917ZM7.98008 0.414917L8.10308 0.798092H8.5074L8.18044 1.03367L8.307 1.42037L7.98004 1.1813L7.65312 1.41684L7.77968 1.03367L7.45272 0.798092H7.85352L7.98008 0.414917ZM10.2582 0.414917L10.3848 0.798092H10.7855L10.4621 1.03367L10.5851 1.42037L10.2582 1.1813L9.93473 1.41684L10.0578 1.03367L9.73437 0.798092H10.1351L10.2582 0.414917ZM12.5398 0.414917L12.6629 0.798092H13.0672L12.7402 1.03367L12.8668 1.42037L12.5398 1.1813L12.2129 1.41684L12.3394 1.03367L12.0125 0.798092H12.4168L12.5398 0.414917ZM2.28124 1.38515L2.40428 1.7684H2.80857L2.4816 2.0039L2.60115 2.38715L2.28473 2.15158L1.9578 2.38712L2.07379 2.00394L1.7574 1.76837H2.1582L2.28124 1.38515ZM4.55937 1.38515L4.68593 1.7684H5.08669L4.75973 2.0039L4.88633 2.38715L4.55933 2.15158L4.2324 2.38712L4.35897 2.00394L4.032 1.76837H4.43629L4.55937 1.38515ZM6.84102 1.38515L6.96402 1.7684H7.36834L7.04138 2.0039L7.16442 2.38715L6.84098 2.15158L6.51405 2.38712L6.63709 2.00398L6.31365 1.7684H6.71445L6.84102 1.38515ZM9.11914 1.38515L9.2457 1.7684H9.64647L9.3195 2.0039L9.44607 2.38715L9.1191 2.15158L8.79567 2.38712L8.91874 2.00394L8.59178 1.76837H8.99959L9.11914 1.38515ZM11.4008 1.38515L11.5238 1.7684H11.9281L11.6012 2.0039L11.7242 2.38715L11.4008 2.15158L11.0738 2.38712L11.1969 2.00394L10.8734 1.76837H11.2742L11.4008 1.38515ZM1.13865 2.35205L1.26522 2.74228H1.66602L1.34254 2.97782L1.46562 3.36103L1.13865 3.12197L0.815216 3.36103L0.938253 2.97429L0.611328 2.73879H1.01914L1.13865 2.35205ZM3.4203 2.35205L3.54334 2.73868H3.94763L3.62067 2.97422L3.74374 3.35747L3.4203 3.11837L3.09334 3.35743L3.21638 2.97073L2.89294 2.73519H3.29374L3.4203 2.35205ZM5.69843 2.35205L5.82499 2.73875H6.22227L5.89883 2.97429L6.02183 3.35754L5.6949 3.11844L5.37147 3.35751L5.4945 2.9708L5.16754 2.73527H5.57187L5.69843 2.35205ZM7.98008 2.35205L8.10308 2.73875H8.5074L8.18044 2.97429L8.307 3.35754L7.98004 3.11844L7.65312 3.35751L7.77968 2.9708L7.45272 2.73527H7.85352L7.98008 2.35205ZM10.2582 2.35205L10.3848 2.73875H10.7855L10.4621 2.97425L10.5851 3.35751L10.2582 3.11841L9.93473 3.35747L10.0578 2.97077L9.73437 2.73523H10.1351L10.2582 2.35205ZM12.5398 2.35205L12.6629 2.73875H13.0672L12.7402 2.97429L12.8668 3.35754L12.5398 3.11844L12.2129 3.35751L12.3394 2.9708L12.0125 2.73527H12.4168L12.5398 2.35205ZM2.28124 3.32233L2.40428 3.70554H2.80857L2.4816 3.94104L2.60468 4.32778L2.28124 4.08872L1.95428 4.32426L2.07732 3.94108L1.75388 3.70554H2.15472L2.28124 3.32233ZM4.55937 3.32233L4.68593 3.70554H5.08669L4.75973 3.94104L4.88633 4.32778L4.55933 4.08872L4.2324 4.32426L4.35897 3.94108L4.032 3.70554H4.43629L4.55937 3.32233ZM6.84102 3.32233L6.96402 3.70554H7.36834L7.04138 3.94104L7.16442 4.32778L6.84098 4.08872L6.51405 4.32426L6.63709 3.94108L6.31365 3.70554H6.71445L6.84102 3.32233ZM9.11914 3.32233L9.2457 3.70554H9.64647L9.32303 3.94104L9.44607 4.32778L9.1191 4.08872L8.79567 4.32426L8.91874 3.94108L8.59178 3.70554H8.99959L9.11914 3.32233ZM11.4008 3.32233L11.5238 3.70554H11.9281L11.6012 3.94104L11.7242 4.32778L11.4008 4.08872L11.0738 4.32426L11.1969 3.94108L10.8734 3.70554H11.2742L11.4008 3.32233ZM1.13865 4.29264L1.26522 4.67586H1.66602L1.34254 4.91136L1.46562 5.29809L1.13865 5.05903L0.815216 5.29457L0.938253 4.91139L0.611328 4.67586H1.01914L1.13865 4.29264ZM3.4203 4.29264L3.54334 4.67586H3.94763L3.62067 4.91136L3.74374 5.29461L3.4203 5.05903L3.09334 5.29457L3.21638 4.91139L2.89294 4.67586H3.29374L3.4203 4.29264ZM5.69843 4.29264L5.82499 4.67586H6.22227L5.89883 4.91136L6.02183 5.29809L5.6949 5.05903L5.37147 5.29457L5.4945 4.91139L5.16754 4.67586H5.57187L5.69843 4.29264ZM7.98008 4.29264L8.10308 4.67586H8.5074L8.18044 4.91136L8.307 5.29809L7.98004 5.05903L7.65312 5.29457L7.77968 4.91139L7.45272 4.67586H7.85352L7.98008 4.29264ZM10.2582 4.29264L10.3848 4.67586H10.7855L10.4621 4.91136L10.5851 5.29809L10.2582 5.05903L9.93473 5.29457L10.0578 4.91139L9.73437 4.67586H10.1351L10.2582 4.29264ZM12.5398 4.29264L12.6629 4.67586H13.0672L12.7402 4.91136L12.8668 5.29809L12.5398 5.05903L12.2129 5.29457L12.3394 4.91139L12.0125 4.67586H12.4168L12.5398 4.29264ZM2.28124 5.26296L2.40428 5.64617H2.80857L2.4816 5.88167L2.60468 6.26492L2.28124 6.02586L1.95428 6.26492L2.07732 5.87818L1.75388 5.64264H2.15472L2.28124 5.26296ZM4.55937 5.26296L4.68593 5.64617H5.08669L4.75973 5.88167L4.88633 6.26492L4.55933 6.02586L4.2324 6.26492L4.35897 5.87818L4.032 5.64264H4.43629L4.55937 5.26296ZM6.84102 5.26296L6.96402 5.64617H7.36834L7.04138 5.88167L7.16442 6.26492L6.84098 6.02586L6.51405 6.26492L6.63709 5.87818L6.31365 5.64264H6.71445L6.84102 5.26296ZM9.11914 5.26296L9.2457 5.64617H9.64647L9.32303 5.88167L9.44607 6.26492L9.1191 6.02586L8.79567 6.26492L8.91874 5.87818L8.59178 5.64264H8.99959L9.11914 5.26296ZM11.4008 5.26296L11.5238 5.64617H11.9281L11.6012 5.88167L11.7242 6.26492L11.4008 6.02586L11.0738 6.26492L11.1969 5.87818L10.8734 5.64264H11.2742L11.4008 5.26296ZM1.13865 6.22974L1.26522 6.61648H1.66602L1.34254 6.85198L1.46562 7.23171L1.13865 6.99617L0.815216 7.23167L0.938253 6.84849L0.611328 6.61296H1.01914L1.13865 6.22974ZM3.4203 6.22974L3.54334 6.61648H3.94763L3.62067 6.85198L3.74727 7.23171L3.42027 6.99617L3.09334 7.23167L3.2199 6.84849L2.89294 6.61296H3.29374L3.4203 6.22974ZM5.69843 6.22974L5.82499 6.61648H6.22227L5.89883 6.85198L6.02183 7.23171L5.6949 6.99617L5.37147 7.23167L5.4945 6.84849L5.16754 6.61296H5.57187L5.69843 6.22974ZM7.98008 6.22974L8.10308 6.61648H8.5074L8.18044 6.85198L8.307 7.23171L7.98004 6.99617L7.65312 7.23167L7.77968 6.84849L7.45272 6.61296H7.85352L7.98008 6.22974ZM10.2582 6.22974L10.3848 6.61648H10.7855L10.4621 6.85198L10.5851 7.23171L10.2582 6.99617L9.93473 7.23167L10.0578 6.84849L9.73437 6.61296H10.1351L10.2582 6.22974ZM12.5398 6.22974L12.6629 6.61648H13.0672L12.7402 6.85198L12.8668 7.23171L12.5398 6.99617L12.2129 7.23167L12.3394 6.84849L12.0125 6.61296H12.4168L12.5398 6.22974ZM2.28124 7.20006L2.40428 7.58327H2.80857L2.4816 7.81881L2.60468 8.20554L2.28124 7.96648L1.95428 8.20198L2.07732 7.81881L1.75388 7.58327H2.15472L2.28124 7.20006ZM4.55937 7.20006L4.68593 7.58327H5.08669L4.75973 7.81881L4.88633 8.20554L4.55933 7.96648L4.2324 8.20198L4.35897 7.81881L4.032 7.58327H4.43629L4.55937 7.20006ZM6.84102 7.20006L6.96402 7.58327H7.36834L7.04138 7.81881L7.16442 8.20554L6.84098 7.96648L6.51405 8.20198L6.63709 7.81881L6.31365 7.58327H6.71445L6.84102 7.20006ZM9.11914 7.20006L9.2457 7.58327H9.64647L9.32303 7.81881L9.44607 8.20554L9.1191 7.96648L8.79567 8.20198L8.91874 7.81881L8.59178 7.58327H8.99959L9.11914 7.20006ZM11.4008 7.20006L11.5238 7.58327H11.9281L11.6012 7.81881L11.7242 8.20554L11.4008 7.96648L11.0738 8.20198L11.1969 7.81881L10.8734 7.58327H11.2742L11.4008 7.20006ZM1.13865 8.17037L1.26522 8.55358H1.66602L1.34254 8.78912L1.46562 9.17233L1.13865 8.93679L0.815216 9.17229L0.938253 8.78559L0.611328 8.55006H1.01914L1.13865 8.17037ZM3.4203 8.17037L3.54334 8.55358H3.94763L3.62067 8.78912L3.74727 9.17233L3.42027 8.93679L3.09334 9.17229L3.2199 8.78559L2.89294 8.55006H3.29374L3.4203 8.17037ZM5.69843 8.17037L5.82499 8.55358H6.22227L5.90584 8.78912L6.02888 9.17233L5.70192 8.93679L5.37848 9.17229L5.50155 8.78559L5.17459 8.55006H5.57888L5.69843 8.17037ZM7.98008 8.17037L8.10308 8.55358H8.5074L8.18044 8.78912L8.307 9.17233L7.98004 8.93679L7.65312 9.17229L7.77968 8.78559L7.45272 8.55006H7.85352L7.98008 8.17037ZM10.2582 8.17037L10.3848 8.55358H10.7855L10.4621 8.78912L10.5851 9.17233L10.2582 8.93679L9.93473 9.17229L10.0578 8.78559L9.73437 8.55006H10.1351L10.2582 8.17037ZM12.5398 8.17037L12.6629 8.55358H13.0672L12.7402 8.78912L12.8668 9.17233L12.5398 8.93679L12.2129 9.17229L12.3394 8.78559L12.0125 8.55006H12.4168L12.5398 8.17037Z" fill="white"/>
</g>
<defs>
<clipPath id="clip0_877_9511">
<rect width="24" height="18" rx="3" fill="white"/>
</clipPath>
</defs>
</svg>
