<svg width="50" height="51" viewBox="0 0 50 51" fill="none" xmlns="http://www.w3.org/2000/svg">
<path fill-rule="evenodd" clip-rule="evenodd" d="M21.8743 8.3125C20.1455 8.31235 18.4356 8.67076 16.8525 9.36511C15.2693 10.0594 13.8474 11.0746 12.6766 12.3465C11.5058 13.6183 10.6115 15.1192 10.0502 16.7543C9.48901 18.3893 9.27302 20.123 9.41592 21.8458C7.1628 22.9016 5.33698 24.694 4.23984 26.9272C3.14269 29.1605 2.83981 31.7011 3.38117 34.1297C3.92253 36.5583 5.27577 38.7297 7.21755 40.2855C9.15933 41.8414 11.5736 42.6887 14.0618 42.6875H37.4993C39.5726 42.6882 41.5877 42.0015 43.2292 40.735C44.8707 39.4684 46.0461 37.6934 46.5714 35.6877C47.0967 33.682 46.9423 31.5588 46.1323 29.6502C45.3224 27.7416 43.9026 26.1553 42.0951 25.1396C42.2803 23.9509 42.1886 22.7355 41.827 21.5881C41.4653 20.4407 40.8436 19.3923 40.0102 18.5247C39.1769 17.657 38.1544 16.9936 37.0225 16.586C35.8906 16.1784 34.6799 16.0378 33.4847 16.175C32.5571 13.854 30.9551 11.8643 28.8855 10.4628C26.8159 9.06128 24.3737 8.31228 21.8743 8.3125ZM26.1034 19.7083C25.8105 19.4157 25.4133 19.2514 24.9993 19.2514C24.5852 19.2514 24.1881 19.4157 23.8951 19.7083L17.6451 25.9583C17.4916 26.1014 17.3684 26.2739 17.283 26.4655C17.1976 26.6572 17.1517 26.8641 17.148 27.0739C17.1443 27.2837 17.1829 27.4921 17.2615 27.6867C17.3401 27.8812 17.4571 28.058 17.6054 28.2063C17.7538 28.3547 17.9305 28.4717 18.1251 28.5503C18.3197 28.6288 18.528 28.6674 18.7378 28.6637C18.9476 28.66 19.1545 28.6141 19.3462 28.5287C19.5379 28.4433 19.7104 28.3202 19.8534 28.1667L23.4368 24.5833V34.875C23.4368 35.2894 23.6014 35.6868 23.8944 35.9799C24.1874 36.2729 24.5849 36.4375 24.9993 36.4375C25.4137 36.4375 25.8111 36.2729 26.1041 35.9799C26.3971 35.6868 26.5618 35.2894 26.5618 34.875V24.5833L30.1451 28.1667C30.2881 28.3202 30.4606 28.4433 30.6523 28.5287C30.844 28.6141 31.0509 28.66 31.2607 28.6637C31.4705 28.6674 31.6789 28.6288 31.8734 28.5503C32.068 28.4717 32.2447 28.3547 32.3931 28.2063C32.5415 28.058 32.6584 27.8812 32.737 27.6867C32.8156 27.4921 32.8542 27.2837 32.8505 27.0739C32.8468 26.8641 32.8009 26.6572 32.7155 26.4655C32.6301 26.2739 32.5069 26.1014 32.3534 25.9583L26.1034 19.7083Z" fill="#767676"/>
</svg>
